# xmcd CD Database Entry
#
# Track frame offsets:
# 150
# 11792
# 25040
# 40295
# 54770
# 67612
# 77229
# 91045
# 104347
# 114320
# 122327
# 132830
# 146725
# 157720
#
# Disc length: 2265 seconds
#
# Revision: 1
# Processed by: cddbd v1.4b41PL1 Copyright (c) Steve Scherf et al.
# Submitted via: tcd 2.0b
#
DISCID=9d08d70e
DTITLE=All Country - Country Roads
DYEAR=1900
DGENRE=
TTITLE0=Walking After Midnight
TTITLE1=Ruby Tuesday
TTITLE2=For The Good Times
TTITLE3=Coal Miner's Daughter (Live)
TTITLE4=Boppin' The Blues
TTITLE5=The Legend Of Bonnie And Clyde
TTITLE6=Cool Water
TTITLE7=Della And The Dealer
TTITLE8=Honeycomb
TTITLE9=Things To Remember
TTITLE10=Lovesink Blues
TTITLE11=Fifteen Years Ago
TTITLE12=Dixie Fried
TTITLE13=Reuben James
EXTD=
EXTT0=
EXTT1=
EXTT2=
EXTT3=
EXTT4=
EXTT5=
EXTT6=
EXTT7=
EXTT8=
EXTT9=
EXTT10=
EXTT11=
EXTT12=
EXTT13=
PLAYORDER=
